<?xml version="1.0" standalone="no"?>
<!DOCTYPE svg PUBLIC "-//W3C//DTD SVG 20010904//EN"
 "http://www.w3.org/TR/2001/REC-SVG-20010904/DTD/svg10.dtd">
<svg version="1.0" xmlns="http://www.w3.org/2000/svg"
 width="260.000000pt" height="260.000000pt" viewBox="0 0 260.000000 260.000000"
 preserveAspectRatio="xMidYMid meet">
<g transform="translate(0.000000,260.000000) scale(0.100000,-0.100000)"
fill="#000000" stroke="none">
<path d="M379 2585 c-177 -48 -310 -182 -363 -364 -14 -47 -16 -161 -15 -920
0 -798 2 -871 18 -932 47 -175 201 -320 379 -358 73 -15 1735 -15 1807 0 185
40 345 201 384 387 15 73 15 1736 0 1807 -39 183 -200 344 -384 384 -77 16
-1765 13 -1826 -4z"/>
</g>
</svg>
